<?xml version="1.0" encoding="UTF-8" standalone="no"?>
<!DOCTYPE svg PUBLIC "-//W3C//DTD SVG 1.1//EN"
 "http://www.w3.org/Graphics/SVG/1.1/DTD/svg11.dtd">
<!-- Generated by graphviz version 2.43.0 (0)
 -->
<!-- Title: %3 Pages: 1 -->
<svg width="2295pt" height="548pt"
 viewBox="0.00 0.00 2294.72 548.00" xmlns="http://www.w3.org/2000/svg" xmlns:xlink="http://www.w3.org/1999/xlink">
<g id="graph0" class="graph" transform="scale(1 1) rotate(0) translate(4 544)">
<title>%3</title>
<polygon fill="white" stroke="transparent" points="-4,4 -4,-544 2290.72,-544 2290.72,4 -4,4"/>
<!-- [root] aws_acm_certificate.certificate (expand) -->
<g id="node1" class="node">
<title>[root] aws_acm_certificate.certificate (expand)</title>
<polygon fill="none" stroke="black" points="1601.39,-252 1365.39,-252 1365.39,-216 1601.39,-216 1601.39,-252"/>
<text text-anchor="middle" x="1483.39" y="-230.3" font-family="Times,serif" font-size="14.00">aws_acm_certificate.certificate</text>
</g>
<!-- [root] data.aws_route53_zone.domain_zone (expand) -->
<g id="node12" class="node">
<title>[root] data.aws_route53_zone.domain_zone (expand)</title>
<polygon fill="none" stroke="black" points="2003.39,-180 1723.39,-180 1723.39,-144 2003.39,-144 2003.39,-180"/>
<text text-anchor="middle" x="1863.39" y="-158.3" font-family="Times,serif" font-size="14.00">data.aws_route53_zone.domain_zone</text>
</g>
<!-- [root] aws_acm_certificate.certificate (expand)&#45;&gt;[root] data.aws_route53_zone.domain_zone (expand) -->
<g id="edge1" class="edge">
<title>[root] aws_acm_certificate.certificate (expand)&#45;&gt;[root] data.aws_route53_zone.domain_zone (expand)</title>
<path fill="none" stroke="black" d="M1575.86,-215.97C1631.83,-205.66 1703.29,-192.49 1760.96,-181.87"/>
<polygon fill="black" stroke="black" points="1761.63,-185.3 1770.83,-180.05 1760.36,-178.42 1761.63,-185.3"/>
</g>
<!-- [root] local.cdn_domain (expand) -->
<g id="node16" class="node">
<title>[root] local.cdn_domain (expand)</title>
<ellipse fill="none" stroke="black" cx="1543.39" cy="-162" rx="162.47" ry="18"/>
<text text-anchor="middle" x="1543.39" y="-158.3" font-family="Times,serif" font-size="14.00">[root] local.cdn_domain (expand)</text>
</g>
<!-- [root] aws_acm_certificate.certificate (expand)&#45;&gt;[root] local.cdn_domain (expand) -->
<g id="edge2" class="edge">
<title>[root] aws_acm_certificate.certificate (expand)&#45;&gt;[root] local.cdn_domain (expand)</title>
<path fill="none" stroke="black" d="M1498.22,-215.7C1505.41,-207.3 1514.18,-197.07 1522.08,-187.86"/>
<polygon fill="black" stroke="black" points="1524.88,-189.97 1528.73,-180.1 1519.56,-185.42 1524.88,-189.97"/>
</g>
<!-- [root] local.route53_create_domain (expand) -->
<g id="node17" class="node">
<title>[root] local.route53_create_domain (expand)</title>
<ellipse fill="none" stroke="black" cx="1147.39" cy="-162" rx="215.56" ry="18"/>
<text text-anchor="middle" x="1147.39" y="-158.3" font-family="Times,serif" font-size="14.00">[root] local.route53_create_domain (expand)</text>
</g>
<!-- [root] aws_acm_certificate.certificate (expand)&#45;&gt;[root] local.route53_create_domain (expand) -->
<g id="edge3" class="edge">
<title>[root] aws_acm_certificate.certificate (expand)&#45;&gt;[root] local.route53_create_domain (expand)</title>
<path fill="none" stroke="black" d="M1401.62,-215.97C1350.62,-205.34 1285.06,-191.68 1233.29,-180.9"/>
<polygon fill="black" stroke="black" points="1233.97,-177.46 1223.46,-178.85 1232.54,-184.32 1233.97,-177.46"/>
</g>
<!-- [root] aws_acm_certificate_validation.certificate_validation (expand) -->
<g id="node2" class="node">
<title>[root] aws_acm_certificate_validation.certificate_validation (expand)</title>
<polygon fill="none" stroke="black" points="1670.39,-396 1280.39,-396 1280.39,-360 1670.39,-360 1670.39,-396"/>
<text text-anchor="middle" x="1475.39" y="-374.3" font-family="Times,serif" font-size="14.00">aws_acm_certificate_validation.certificate_validation</text>
</g>
<!-- [root] aws_acm_certificate_validation.certificate_validation (expand)&#45;&gt;[root] aws_acm_certificate.certificate (expand) -->
<g id="edge4" class="edge">
<title>[root] aws_acm_certificate_validation.certificate_validation (expand)&#45;&gt;[root] aws_acm_certificate.certificate (expand)</title>
<path fill="none" stroke="black" d="M1476.35,-359.87C1477.72,-335.67 1480.22,-291.21 1481.84,-262.39"/>
<polygon fill="black" stroke="black" points="1485.35,-262.37 1482.42,-252.19 1478.36,-261.98 1485.35,-262.37"/>
</g>
<!-- [root] aws_route53_record.domain_record (expand) -->
<g id="node5" class="node">
<title>[root] aws_route53_record.domain_record (expand)</title>
<polygon fill="none" stroke="black" points="1774.89,-324 1503.89,-324 1503.89,-288 1774.89,-288 1774.89,-324"/>
<text text-anchor="middle" x="1639.39" y="-302.3" font-family="Times,serif" font-size="14.00">aws_route53_record.domain_record</text>
</g>
<!-- [root] aws_acm_certificate_validation.certificate_validation (expand)&#45;&gt;[root] aws_route53_record.domain_record (expand) -->
<g id="edge5" class="edge">
<title>[root] aws_acm_certificate_validation.certificate_validation (expand)&#45;&gt;[root] aws_route53_record.domain_record (expand)</title>
<path fill="none" stroke="black" d="M1515.51,-359.88C1538.03,-350.26 1566.31,-338.19 1590.16,-328.01"/>
<polygon fill="black" stroke="black" points="1591.58,-331.21 1599.4,-324.07 1588.83,-324.77 1591.58,-331.21"/>
</g>
<!-- [root] aws_cloudfront_distribution.cloudfront (expand) -->
<g id="node3" class="node">
<title>[root] aws_cloudfront_distribution.cloudfront (expand)</title>
<polygon fill="none" stroke="black" points="1293.89,-252 1000.89,-252 1000.89,-216 1293.89,-216 1293.89,-252"/>
<text text-anchor="middle" x="1147.39" y="-230.3" font-family="Times,serif" font-size="14.00">aws_cloudfront_distribution.cloudfront</text>
</g>
<!-- [root] aws_cloudfront_origin_access_control.cloudfront_acl (expand) -->
<g id="node4" class="node">
<title>[root] aws_cloudfront_origin_access_control.cloudfront_acl (expand)</title>
<polygon fill="none" stroke="black" points="913.89,-180 524.89,-180 524.89,-144 913.89,-144 913.89,-180"/>
<text text-anchor="middle" x="719.39" y="-158.3" font-family="Times,serif" font-size="14.00">aws_cloudfront_origin_access_control.cloudfront_acl</text>
</g>
<!-- [root] aws_cloudfront_distribution.cloudfront (expand)&#45;&gt;[root] aws_cloudfront_origin_access_control.cloudfront_acl (expand) -->
<g id="edge6" class="edge">
<title>[root] aws_cloudfront_distribution.cloudfront (expand)&#45;&gt;[root] aws_cloudfront_origin_access_control.cloudfront_acl (expand)</title>
<path fill="none" stroke="black" d="M1043.23,-215.97C979.81,-205.59 898.71,-192.33 833.54,-181.67"/>
<polygon fill="black" stroke="black" points="834.07,-178.21 823.64,-180.05 832.94,-185.12 834.07,-178.21"/>
</g>
<!-- [root] aws_s3_bucket.bucket (expand) -->
<g id="node6" class="node">
<title>[root] aws_s3_bucket.bucket (expand)</title>
<polygon fill="none" stroke="black" points="506.89,-180 331.89,-180 331.89,-144 506.89,-144 506.89,-180"/>
<text text-anchor="middle" x="419.39" y="-158.3" font-family="Times,serif" font-size="14.00">aws_s3_bucket.bucket</text>
</g>
<!-- [root] aws_cloudfront_distribution.cloudfront (expand)&#45;&gt;[root] aws_s3_bucket.bucket (expand) -->
<g id="edge7" class="edge">
<title>[root] aws_cloudfront_distribution.cloudfront (expand)&#45;&gt;[root] aws_s3_bucket.bucket (expand)</title>
<path fill="none" stroke="black" d="M1000.87,-222.28C849.18,-210.9 621.15,-192.98 516.96,-180.12"/>
<polygon fill="black" stroke="black" points="517.33,-176.64 506.97,-178.85 516.45,-183.58 517.33,-176.64"/>
</g>
<!-- [root] aws_cloudfront_distribution.cloudfront (expand)&#45;&gt;[root] local.cdn_domain (expand) -->
<g id="edge8" class="edge">
<title>[root] aws_cloudfront_distribution.cloudfront (expand)&#45;&gt;[root] local.cdn_domain (expand)</title>
<path fill="none" stroke="black" d="M1243.75,-215.97C1306.75,-204.83 1388.59,-190.36 1450.81,-179.36"/>
<polygon fill="black" stroke="black" points="1451.78,-182.75 1461.01,-177.56 1450.56,-175.86 1451.78,-182.75"/>
</g>
<!-- [root] aws_cloudfront_distribution.cloudfront (expand)&#45;&gt;[root] local.route53_create_domain (expand) -->
<g id="edge9" class="edge">
<title>[root] aws_cloudfront_distribution.cloudfront (expand)&#45;&gt;[root] local.route53_create_domain (expand)</title>
<path fill="none" stroke="black" d="M1147.39,-215.7C1147.39,-207.98 1147.39,-198.71 1147.39,-190.11"/>
<polygon fill="black" stroke="black" points="1150.89,-190.1 1147.39,-180.1 1143.89,-190.1 1150.89,-190.1"/>
</g>
<!-- [root] provider[&quot;registry.terraform.io/hashicorp/aws&quot;] -->
<g id="node14" class="node">
<title>[root] provider[&quot;registry.terraform.io/hashicorp/aws&quot;]</title>
<polygon fill="none" stroke="black" points="919.39,-36 594.12,-18 919.39,0 1244.65,-18 919.39,-36"/>
<text text-anchor="middle" x="919.39" y="-14.3" font-family="Times,serif" font-size="14.00">provider[&quot;registry.terraform.io/hashicorp/aws&quot;]</text>
</g>
<!-- [root] aws_cloudfront_origin_access_control.cloudfront_acl (expand)&#45;&gt;[root] provider[&quot;registry.terraform.io/hashicorp/aws&quot;] -->
<g id="edge11" class="edge">
<title>[root] aws_cloudfront_origin_access_control.cloudfront_acl (expand)&#45;&gt;[root] provider[&quot;registry.terraform.io/hashicorp/aws&quot;]</title>
<path fill="none" stroke="black" d="M843.43,-143.98C864.78,-136.04 885.02,-124.56 900.39,-108 915.71,-91.49 919.86,-65.76 920.53,-46.2"/>
<polygon fill="black" stroke="black" points="924.03,-46.09 920.59,-36.07 917.03,-46.05 924.03,-46.09"/>
</g>
<!-- [root] local.resource_prefix_name (expand) -->
<g id="node18" class="node">
<title>[root] local.resource_prefix_name (expand)</title>
<ellipse fill="none" stroke="black" cx="419.39" cy="-90" rx="208.76" ry="18"/>
<text text-anchor="middle" x="419.39" y="-86.3" font-family="Times,serif" font-size="14.00">[root] local.resource_prefix_name (expand)</text>
</g>
<!-- [root] aws_cloudfront_origin_access_control.cloudfront_acl (expand)&#45;&gt;[root] local.resource_prefix_name (expand) -->
<g id="edge10" class="edge">
<title>[root] aws_cloudfront_origin_access_control.cloudfront_acl (expand)&#45;&gt;[root] local.resource_prefix_name (expand)</title>
<path fill="none" stroke="black" d="M646.38,-143.97C601.46,-133.48 543.9,-120.05 497.99,-109.34"/>
<polygon fill="black" stroke="black" points="498.61,-105.89 488.08,-107.03 497.02,-112.71 498.61,-105.89"/>
</g>
<!-- [root] aws_route53_record.domain_record (expand)&#45;&gt;[root] aws_cloudfront_distribution.cloudfront (expand) -->
<g id="edge12" class="edge">
<title>[root] aws_route53_record.domain_record (expand)&#45;&gt;[root] aws_cloudfront_distribution.cloudfront (expand)</title>
<path fill="none" stroke="black" d="M1519.66,-287.97C1446.3,-277.53 1352.38,-264.17 1277.23,-253.47"/>
<polygon fill="black" stroke="black" points="1277.62,-249.99 1267.23,-252.05 1276.63,-256.92 1277.62,-249.99"/>
</g>
<!-- [root] aws_route53_record.domain_record (expand)&#45;&gt;[root] data.aws_route53_zone.domain_zone (expand) -->
<g id="edge13" class="edge">
<title>[root] aws_route53_record.domain_record (expand)&#45;&gt;[root] data.aws_route53_zone.domain_zone (expand)</title>
<path fill="none" stroke="black" d="M1666.41,-287.87C1706.77,-262.28 1782.85,-214.05 1827.73,-185.6"/>
<polygon fill="black" stroke="black" points="1829.7,-188.5 1836.27,-180.19 1825.95,-182.59 1829.7,-188.5"/>
</g>
<!-- [root] data.aws_caller_identity.current (expand) -->
<g id="node11" class="node">
<title>[root] data.aws_caller_identity.current (expand)</title>
<polygon fill="none" stroke="black" points="890.89,-108 645.89,-108 645.89,-72 890.89,-72 890.89,-108"/>
<text text-anchor="middle" x="768.39" y="-86.3" font-family="Times,serif" font-size="14.00">data.aws_caller_identity.current</text>
</g>
<!-- [root] aws_s3_bucket.bucket (expand)&#45;&gt;[root] data.aws_caller_identity.current (expand) -->
<g id="edge14" class="edge">
<title>[root] aws_s3_bucket.bucket (expand)&#45;&gt;[root] data.aws_caller_identity.current (expand)</title>
<path fill="none" stroke="black" d="M504.32,-143.97C555.4,-133.72 620.54,-120.66 673.33,-110.07"/>
<polygon fill="black" stroke="black" points="674.26,-113.45 683.38,-108.05 672.89,-106.59 674.26,-113.45"/>
</g>
<!-- [root] aws_s3_bucket.bucket (expand)&#45;&gt;[root] local.resource_prefix_name (expand) -->
<g id="edge15" class="edge">
<title>[root] aws_s3_bucket.bucket (expand)&#45;&gt;[root] local.resource_prefix_name (expand)</title>
<path fill="none" stroke="black" d="M419.39,-143.7C419.39,-135.98 419.39,-126.71 419.39,-118.11"/>
<polygon fill="black" stroke="black" points="422.89,-118.1 419.39,-108.1 415.89,-118.1 422.89,-118.1"/>
</g>
<!-- [root] aws_s3_bucket_acl.bucket_acl (expand) -->
<g id="node7" class="node">
<title>[root] aws_s3_bucket_acl.bucket_acl (expand)</title>
<polygon fill="none" stroke="black" points="906.89,-252 677.89,-252 677.89,-216 906.89,-216 906.89,-252"/>
<text text-anchor="middle" x="792.39" y="-230.3" font-family="Times,serif" font-size="14.00">aws_s3_bucket_acl.bucket_acl</text>
</g>
<!-- [root] aws_s3_bucket_acl.bucket_acl (expand)&#45;&gt;[root] aws_s3_bucket.bucket (expand) -->
<g id="edge16" class="edge">
<title>[root] aws_s3_bucket_acl.bucket_acl (expand)&#45;&gt;[root] aws_s3_bucket.bucket (expand)</title>
<path fill="none" stroke="black" d="M701.62,-215.97C645.78,-205.49 574.23,-192.06 517.14,-181.35"/>
<polygon fill="black" stroke="black" points="517.5,-177.85 507.02,-179.45 516.21,-184.73 517.5,-177.85"/>
</g>
<!-- [root] aws_s3_bucket_policy.bucket_policy (expand) -->
<g id="node8" class="node">
<title>[root] aws_s3_bucket_policy.bucket_policy (expand)</title>
<polygon fill="none" stroke="black" points="1431.39,-324 1161.39,-324 1161.39,-288 1431.39,-288 1431.39,-324"/>
<text text-anchor="middle" x="1296.39" y="-302.3" font-family="Times,serif" font-size="14.00">aws_s3_bucket_policy.bucket_policy</text>
</g>
<!-- [root] aws_s3_bucket_policy.bucket_policy (expand)&#45;&gt;[root] aws_cloudfront_distribution.cloudfront (expand) -->
<g id="edge17" class="edge">
<title>[root] aws_s3_bucket_policy.bucket_policy (expand)&#45;&gt;[root] aws_cloudfront_distribution.cloudfront (expand)</title>
<path fill="none" stroke="black" d="M1259.94,-287.88C1239.75,-278.39 1214.47,-266.51 1192.98,-256.42"/>
<polygon fill="black" stroke="black" points="1194.26,-253.15 1183.72,-252.07 1191.28,-259.49 1194.26,-253.15"/>
</g>
<!-- [root] aws_s3_bucket_public_access_block.bucket_public_access (expand) -->
<g id="node9" class="node">
<title>[root] aws_s3_bucket_public_access_block.bucket_public_access (expand)</title>
<polygon fill="none" stroke="black" points="466.39,-396 40.39,-396 40.39,-360 466.39,-360 466.39,-396"/>
<text text-anchor="middle" x="253.39" y="-374.3" font-family="Times,serif" font-size="14.00">aws_s3_bucket_public_access_block.bucket_public_access</text>
</g>
<!-- [root] aws_s3_bucket_public_access_block.bucket_public_access (expand)&#45;&gt;[root] aws_s3_bucket.bucket (expand) -->
<g id="edge18" class="edge">
<title>[root] aws_s3_bucket_public_access_block.bucket_public_access (expand)&#45;&gt;[root] aws_s3_bucket.bucket (expand)</title>
<path fill="none" stroke="black" d="M214.11,-359.9C199.52,-351.37 184.54,-339.51 176.39,-324 168.94,-309.84 168.05,-301.66 176.39,-288 210.19,-232.6 277.24,-200.72 332.37,-183.04"/>
<polygon fill="black" stroke="black" points="333.64,-186.3 342.16,-180 331.57,-179.62 333.64,-186.3"/>
</g>
<!-- [root] aws_s3_object.public_folder (expand) -->
<g id="node10" class="node">
<title>[root] aws_s3_object.public_folder (expand)</title>
<polygon fill="none" stroke="black" points="1066.89,-324 851.89,-324 851.89,-288 1066.89,-288 1066.89,-324"/>
<text text-anchor="middle" x="959.39" y="-302.3" font-family="Times,serif" font-size="14.00">aws_s3_object.public_folder</text>
</g>
<!-- [root] aws_s3_object.public_folder (expand)&#45;&gt;[root] aws_s3_bucket.bucket (expand) -->
<g id="edge19" class="edge">
<title>[root] aws_s3_object.public_folder (expand)&#45;&gt;[root] aws_s3_bucket.bucket (expand)</title>
<path fill="none" stroke="black" d="M855.68,-287.94C786.88,-276.28 703.11,-261.3 668.39,-252 598.34,-233.24 519.93,-203.74 470.15,-183.9"/>
<polygon fill="black" stroke="black" points="471.17,-180.54 460.58,-180.07 468.56,-187.04 471.17,-180.54"/>
</g>
<!-- [root] data.aws_caller_identity.current (expand)&#45;&gt;[root] provider[&quot;registry.terraform.io/hashicorp/aws&quot;] -->
<g id="edge20" class="edge">
<title>[root] data.aws_caller_identity.current (expand)&#45;&gt;[root] provider[&quot;registry.terraform.io/hashicorp/aws&quot;]</title>
<path fill="none" stroke="black" d="M805.33,-71.88C827.02,-61.82 854.53,-49.07 877.09,-38.61"/>
<polygon fill="black" stroke="black" points="878.83,-41.66 886.43,-34.28 875.88,-35.31 878.83,-41.66"/>
</g>
<!-- [root] data.aws_route53_zone.domain_zone (expand)&#45;&gt;[root] provider[&quot;registry.terraform.io/hashicorp/aws&quot;] -->
<g id="edge23" class="edge">
<title>[root] data.aws_route53_zone.domain_zone (expand)&#45;&gt;[root] provider[&quot;registry.terraform.io/hashicorp/aws&quot;]</title>
<path fill="none" stroke="black" d="M1723.29,-144.68C1618.57,-132.33 1484.39,-116.15 1429.39,-108 1276.39,-85.32 1098.62,-52.92 998.53,-34.11"/>
<polygon fill="black" stroke="black" points="998.97,-30.63 988.5,-32.22 997.68,-37.51 998.97,-30.63"/>
</g>
<!-- [root] local.route53_base_domain (expand) -->
<g id="node19" class="node">
<title>[root] local.route53_base_domain (expand)</title>
<ellipse fill="none" stroke="black" cx="1646.39" cy="-90" rx="207.96" ry="18"/>
<text text-anchor="middle" x="1646.39" y="-86.3" font-family="Times,serif" font-size="14.00">[root] local.route53_base_domain (expand)</text>
</g>
<!-- [root] data.aws_route53_zone.domain_zone (expand)&#45;&gt;[root] local.route53_base_domain (expand) -->
<g id="edge21" class="edge">
<title>[root] data.aws_route53_zone.domain_zone (expand)&#45;&gt;[root] local.route53_base_domain (expand)</title>
<path fill="none" stroke="black" d="M1810.58,-143.97C1779.43,-133.92 1739.87,-121.16 1707.39,-110.68"/>
<polygon fill="black" stroke="black" points="1708.15,-107.25 1697.56,-107.51 1706,-113.91 1708.15,-107.25"/>
</g>
<!-- [root] local.route53_private_zone (expand) -->
<g id="node20" class="node">
<title>[root] local.route53_private_zone (expand)</title>
<ellipse fill="none" stroke="black" cx="2079.39" cy="-90" rx="207.16" ry="18"/>
<text text-anchor="middle" x="2079.39" y="-86.3" font-family="Times,serif" font-size="14.00">[root] local.route53_private_zone (expand)</text>
</g>
<!-- [root] data.aws_route53_zone.domain_zone (expand)&#45;&gt;[root] local.route53_private_zone (expand) -->
<g id="edge22" class="edge">
<title>[root] data.aws_route53_zone.domain_zone (expand)&#45;&gt;[root] local.route53_private_zone (expand)</title>
<path fill="none" stroke="black" d="M1915.95,-143.97C1946.96,-133.92 1986.33,-121.16 2018.66,-110.68"/>
<polygon fill="black" stroke="black" points="2020.02,-113.92 2028.45,-107.51 2017.86,-107.26 2020.02,-113.92"/>
</g>
<!-- [root] null_resource.cache_invalidation (expand) -->
<g id="node13" class="node">
<title>[root] null_resource.cache_invalidation (expand)</title>
<polygon fill="none" stroke="black" points="793.39,-396 545.39,-396 545.39,-360 793.39,-360 793.39,-396"/>
<text text-anchor="middle" x="669.39" y="-374.3" font-family="Times,serif" font-size="14.00">null_resource.cache_invalidation</text>
</g>
<!-- [root] null_resource.cache_invalidation (expand)&#45;&gt;[root] aws_cloudfront_distribution.cloudfront (expand) -->
<g id="edge26" class="edge">
<title>[root] null_resource.cache_invalidation (expand)&#45;&gt;[root] aws_cloudfront_distribution.cloudfront (expand)</title>
<path fill="none" stroke="black" d="M793.47,-371C895.02,-364.25 1029.29,-350.56 1076.39,-324 1102.07,-309.52 1121.93,-281.7 1134.03,-261"/>
<polygon fill="black" stroke="black" points="1137.2,-262.5 1139.04,-252.06 1131.09,-259.08 1137.2,-262.5"/>
</g>
<!-- [root] null_resource.cache_invalidation (expand)&#45;&gt;[root] aws_s3_object.public_folder (expand) -->
<g id="edge27" class="edge">
<title>[root] null_resource.cache_invalidation (expand)&#45;&gt;[root] aws_s3_object.public_folder (expand)</title>
<path fill="none" stroke="black" d="M739.96,-359.97C781.88,-349.85 835.18,-336.98 878.76,-326.46"/>
<polygon fill="black" stroke="black" points="879.85,-329.8 888.75,-324.05 878.21,-322.99 879.85,-329.8"/>
</g>
<!-- [root] provider[&quot;registry.terraform.io/hashicorp/null&quot;] -->
<g id="node15" class="node">
<title>[root] provider[&quot;registry.terraform.io/hashicorp/null&quot;]</title>
<polygon fill="none" stroke="black" points="509.39,-324 184.96,-306 509.39,-288 833.81,-306 509.39,-324"/>
<text text-anchor="middle" x="509.39" y="-302.3" font-family="Times,serif" font-size="14.00">provider[&quot;registry.terraform.io/hashicorp/null&quot;]</text>
</g>
<!-- [root] null_resource.cache_invalidation (expand)&#45;&gt;[root] provider[&quot;registry.terraform.io/hashicorp/null&quot;] -->
<g id="edge28" class="edge">
<title>[root] null_resource.cache_invalidation (expand)&#45;&gt;[root] provider[&quot;registry.terraform.io/hashicorp/null&quot;]</title>
<path fill="none" stroke="black" d="M630.25,-359.88C606.97,-349.69 577.38,-336.75 553.31,-326.22"/>
<polygon fill="black" stroke="black" points="554.61,-322.96 544.04,-322.16 551.8,-329.38 554.61,-322.96"/>
</g>
<!-- [root] local.service (expand) -->
<g id="node21" class="node">
<title>[root] local.service (expand)</title>
<ellipse fill="none" stroke="black" cx="140.39" cy="-18" rx="140.28" ry="18"/>
<text text-anchor="middle" x="140.39" y="-14.3" font-family="Times,serif" font-size="14.00">[root] local.service (expand)</text>
</g>
<!-- [root] local.resource_prefix_name (expand)&#45;&gt;[root] local.service (expand) -->
<g id="edge24" class="edge">
<title>[root] local.resource_prefix_name (expand)&#45;&gt;[root] local.service (expand)</title>
<path fill="none" stroke="black" d="M355.03,-72.85C312.09,-62.08 255.61,-47.91 211.37,-36.81"/>
<polygon fill="black" stroke="black" points="212.1,-33.38 201.55,-34.35 210.4,-40.17 212.1,-33.38"/>
</g>
<!-- [root] local.stage (expand) -->
<g id="node22" class="node">
<title>[root] local.stage (expand)</title>
<ellipse fill="none" stroke="black" cx="431.39" cy="-18" rx="132.68" ry="18"/>
<text text-anchor="middle" x="431.39" y="-14.3" font-family="Times,serif" font-size="14.00">[root] local.stage (expand)</text>
</g>
<!-- [root] local.resource_prefix_name (expand)&#45;&gt;[root] local.stage (expand) -->
<g id="edge25" class="edge">
<title>[root] local.resource_prefix_name (expand)&#45;&gt;[root] local.stage (expand)</title>
<path fill="none" stroke="black" d="M422.35,-71.7C423.68,-63.98 425.27,-54.71 426.74,-46.11"/>
<polygon fill="black" stroke="black" points="430.22,-46.55 428.46,-36.1 423.32,-45.37 430.22,-46.55"/>
</g>
<!-- [root] provider[&quot;registry.terraform.io/hashicorp/aws&quot;] (close) -->
<g id="node23" class="node">
<title>[root] provider[&quot;registry.terraform.io/hashicorp/aws&quot;] (close)</title>
<ellipse fill="none" stroke="black" cx="1178.39" cy="-450" rx="291.65" ry="18"/>
<text text-anchor="middle" x="1178.39" y="-446.3" font-family="Times,serif" font-size="14.00">[root] provider[&quot;registry.terraform.io/hashicorp/aws&quot;] (close)</text>
</g>
<!-- [root] provider[&quot;registry.terraform.io/hashicorp/aws&quot;] (close)&#45;&gt;[root] aws_acm_certificate_validation.certificate_validation (expand) -->
<g id="edge29" class="edge">
<title>[root] provider[&quot;registry.terraform.io/hashicorp/aws&quot;] (close)&#45;&gt;[root] aws_acm_certificate_validation.certificate_validation (expand)</title>
<path fill="none" stroke="black" d="M1248.4,-432.5C1291.77,-422.28 1347.69,-409.1 1393.17,-398.38"/>
<polygon fill="black" stroke="black" points="1394.08,-401.76 1403.01,-396.06 1392.47,-394.95 1394.08,-401.76"/>
</g>
<!-- [root] provider[&quot;registry.terraform.io/hashicorp/aws&quot;] (close)&#45;&gt;[root] aws_s3_bucket_acl.bucket_acl (expand) -->
<g id="edge30" class="edge">
<title>[root] provider[&quot;registry.terraform.io/hashicorp/aws&quot;] (close)&#45;&gt;[root] aws_s3_bucket_acl.bucket_acl (expand)</title>
<path fill="none" stroke="black" d="M1172.78,-431.84C1160.87,-398.28 1129.67,-324.09 1076.39,-288 1050.17,-270.25 980.75,-257.11 917.1,-248.36"/>
<polygon fill="black" stroke="black" points="917.32,-244.86 906.95,-247 916.39,-251.8 917.32,-244.86"/>
</g>
<!-- [root] provider[&quot;registry.terraform.io/hashicorp/aws&quot;] (close)&#45;&gt;[root] aws_s3_bucket_policy.bucket_policy (expand) -->
<g id="edge31" class="edge">
<title>[root] provider[&quot;registry.terraform.io/hashicorp/aws&quot;] (close)&#45;&gt;[root] aws_s3_bucket_policy.bucket_policy (expand)</title>
<path fill="none" stroke="black" d="M1192.62,-431.87C1213.26,-407.03 1251.64,-360.85 1275.5,-332.14"/>
<polygon fill="black" stroke="black" points="1278.4,-334.12 1282.1,-324.19 1273.02,-329.64 1278.4,-334.12"/>
</g>
<!-- [root] provider[&quot;registry.terraform.io/hashicorp/aws&quot;] (close)&#45;&gt;[root] aws_s3_bucket_public_access_block.bucket_public_access (expand) -->
<g id="edge32" class="edge">
<title>[root] provider[&quot;registry.terraform.io/hashicorp/aws&quot;] (close)&#45;&gt;[root] aws_s3_bucket_public_access_block.bucket_public_access (expand)</title>
<path fill="none" stroke="black" d="M1001.95,-435.65C852.64,-424.35 637.84,-408.09 476.59,-395.89"/>
<polygon fill="black" stroke="black" points="476.77,-392.39 466.53,-395.13 476.24,-399.37 476.77,-392.39"/>
</g>
<!-- [root] provider[&quot;registry.terraform.io/hashicorp/aws&quot;] (close)&#45;&gt;[root] aws_s3_object.public_folder (expand) -->
<g id="edge33" class="edge">
<title>[root] provider[&quot;registry.terraform.io/hashicorp/aws&quot;] (close)&#45;&gt;[root] aws_s3_object.public_folder (expand)</title>
<path fill="none" stroke="black" d="M1151.97,-431.87C1112.59,-406.34 1038.43,-358.25 994.52,-329.78"/>
<polygon fill="black" stroke="black" points="996.19,-326.69 985.9,-324.19 992.38,-332.57 996.19,-326.69"/>
</g>
<!-- [root] provider[&quot;registry.terraform.io/hashicorp/null&quot;] (close) -->
<g id="node24" class="node">
<title>[root] provider[&quot;registry.terraform.io/hashicorp/null&quot;] (close)</title>
<ellipse fill="none" stroke="black" cx="576.39" cy="-450" rx="291.65" ry="18"/>
<text text-anchor="middle" x="576.39" y="-446.3" font-family="Times,serif" font-size="14.00">[root] provider[&quot;registry.terraform.io/hashicorp/null&quot;] (close)</text>
</g>
<!-- [root] provider[&quot;registry.terraform.io/hashicorp/null&quot;] (close)&#45;&gt;[root] null_resource.cache_invalidation (expand) -->
<g id="edge34" class="edge">
<title>[root] provider[&quot;registry.terraform.io/hashicorp/null&quot;] (close)&#45;&gt;[root] null_resource.cache_invalidation (expand)</title>
<path fill="none" stroke="black" d="M599.38,-431.7C611.2,-422.8 625.78,-411.82 638.57,-402.2"/>
<polygon fill="black" stroke="black" points="640.78,-404.91 646.66,-396.1 636.57,-399.32 640.78,-404.91"/>
</g>
<!-- [root] root -->
<g id="node25" class="node">
<title>[root] root</title>
<ellipse fill="none" stroke="black" cx="877.39" cy="-522" rx="58.49" ry="18"/>
<text text-anchor="middle" x="877.39" y="-518.3" font-family="Times,serif" font-size="14.00">[root] root</text>
</g>
<!-- [root] root&#45;&gt;[root] provider[&quot;registry.terraform.io/hashicorp/aws&quot;] (close) -->
<g id="edge35" class="edge">
<title>[root] root&#45;&gt;[root] provider[&quot;registry.terraform.io/hashicorp/aws&quot;] (close)</title>
<path fill="none" stroke="black" d="M922.45,-510.52C968.63,-499.78 1041.43,-482.85 1097.6,-469.79"/>
<polygon fill="black" stroke="black" points="1098.58,-473.15 1107.53,-467.48 1097,-466.33 1098.58,-473.15"/>
</g>
<!-- [root] root&#45;&gt;[root] provider[&quot;registry.terraform.io/hashicorp/null&quot;] (close) -->
<g id="edge36" class="edge">
<title>[root] root&#45;&gt;[root] provider[&quot;registry.terraform.io/hashicorp/null&quot;] (close)</title>
<path fill="none" stroke="black" d="M832.32,-510.52C786.14,-499.78 713.34,-482.85 657.17,-469.79"/>
<polygon fill="black" stroke="black" points="657.78,-466.33 647.24,-467.48 656.19,-473.15 657.78,-466.33"/>
</g>
</g>
</svg>
